<svg xmlns="http://www.w3.org/2000/svg" viewBox="0 0 956.58 815.91">
    <g id="icon-gloomicious" data-name="icon gloomicious">
        <path d="M907.37,161.38c-23.69-40.21-55.21-76.11-93.66-106.69A25.09,25.09,0,0,0,798,49a25.71,25.71,0,0,0-21.66,12.22,24.53,24.53,0,0,0-.92,24.32c34.38,68.9,62,173.45-1.43,280.22-45,75.66-133,120.82-235.4,120.82-41.59,0-82.11-7.91-117.18-22.88C371.13,442.3,330.76,391.56,321,337.49c-6.38-35.15-3-87.56,49.36-137.56,26.78-25.58,57.4-38.55,91-38.55,41.84,0,80.69,19.84,105.93,36.51a24.93,24.93,0,0,0,13.89,4.26,25.47,25.47,0,0,0,20.57-10.61A24.75,24.75,0,0,0,605.12,169C585.56,110,529.8,9.63,376.23.7c-7.93-.47-16-.7-23.83-.7-96.4,0-185,34.66-249.48,97.59A331.49,331.49,0,0,0,27.65,209.46C9.42,253.76.12,302.3,0,353.74c-.27,120,47.29,233.88,133.93,320.71a482.61,482.61,0,0,0,341.4,141.46,472.48,472.48,0,0,0,184.08-37.44A494.21,494.21,0,0,0,812.64,677c44.83-43.54,80.14-93.87,104.94-149.6a444.68,444.68,0,0,0,39-181.83C956.54,278.72,940,216.76,907.37,161.38ZM474.83,766.68a433.7,433.7,0,0,1-306.08-127C91.43,562.15,49,460.64,49.23,353.85c.1-45,8.16-87.3,24-125.67a281.1,281.1,0,0,1,64.11-95.32C192.57,78.93,269,49.23,352.44,49.23c6.9,0,14,.21,21,.61,55.37,3.22,100.28,20.68,133.46,51.87a189.17,189.17,0,0,1,19.37,21.43c-22.06-7.3-43.78-11-64.89-11-46.71,0-88.78,17.55-125,52.17-53.22,50.83-75.87,115.45-63.79,182,12.74,70.69,63.6,134.6,129.48,162.76,41.13,17.54,88.33,26.82,136.49,26.82,120,0,223.77-54.15,277.71-144.85,26.66-44.85,41.51-93.24,44.14-143.84a334.11,334.11,0,0,0-4.9-75.85q4.93,7.38,9.44,15C893.05,234,907.3,287.58,907.3,345.49a392.8,392.8,0,0,1-34.7,161.84,430.94,430.94,0,0,1-94.29,134.29,451.27,451.27,0,0,1-64.64,52.06,447.17,447.17,0,0,1-73.45,39.4,421.06,421.06,0,0,1-164.93,33.58Z"/>
    </g>
</svg>