<svg xmlns="http://www.w3.org/2000/svg" viewBox="0 0 24 24">
	<g id="icon-instagram" data-name="icon instagram">
		<path d="M12,2.8c-2.5,0-2.8,0-3.8,0.1C7.2,2.9,6.5,3,6,3.3C5.4,3.5,4.8,3.8,4.3,4.3S3.5,5.4,3.3,6C3,6.5,2.9,7.2,2.8,8.2
	c0,1-0.1,1.3-0.1,3.8s0,2.8,0.1,3.8c0,1,0.2,1.7,0.4,2.2c0.2,0.6,0.6,1.1,1.1,1.6c0.5,0.5,1,0.8,1.6,1.1c0.6,0.2,1.3,0.4,2.2,0.4
	c1,0,1.3,0.1,3.8,0.1s2.8,0,3.8-0.1c1,0,1.7-0.2,2.2-0.4c0.6-0.2,1.1-0.6,1.6-1.1c0.5-0.5,0.8-1,1.1-1.6c0.2-0.6,0.4-1.3,0.4-2.2
	c0-1,0.1-1.3,0.1-3.8s0-2.8-0.1-3.8c0-1-0.2-1.7-0.4-2.2c-0.2-0.6-0.6-1.1-1.1-1.6c-0.5-0.5-1-0.8-1.6-1.1c-0.6-0.2-1.3-0.4-2.2-0.4
	C14.8,2.8,14.5,2.8,12,2.8z M12,4.4c2.5,0,2.8,0,3.7,0.1c0.9,0,1.4,0.2,1.7,0.3c0.4,0.2,0.7,0.4,1.1,0.7c0.3,0.3,0.5,0.6,0.7,1.1
	c0.1,0.3,0.3,0.8,0.3,1.7c0,1,0.1,1.3,0.1,3.7s0,2.8-0.1,3.7c0,0.9-0.2,1.4-0.3,1.7c-0.2,0.4-0.4,0.7-0.7,1.1
	c-0.3,0.3-0.6,0.5-1.1,0.7c-0.3,0.1-0.8,0.3-1.7,0.3c-1,0-1.3,0.1-3.7,0.1c-2.5,0-2.8,0-3.7-0.1c-0.9,0-1.4-0.2-1.7-0.3
	c-0.4-0.2-0.7-0.4-1.1-0.7c-0.3-0.3-0.5-0.6-0.7-1.1c-0.1-0.3-0.3-0.8-0.3-1.7c0-1,0-1.3,0-3.7c0-2.5,0-2.8,0-3.7
	c0-0.9,0.2-1.4,0.3-1.7c0.2-0.4,0.4-0.7,0.7-1.1c0.3-0.3,0.6-0.5,1.1-0.7c0.3-0.1,0.8-0.3,1.7-0.3C9.2,4.4,9.5,4.4,12,4.4
	C12,4.4,12,4.4,12,4.4z M12,7.3c-2.6,0-4.7,2.1-4.7,4.7c0,2.6,2.1,4.7,4.7,4.7c2.6,0,4.7-2.1,4.7-4.7C16.7,9.4,14.6,7.3,12,7.3z
	 M12,15.1c-1.7,0-3.1-1.4-3.1-3.1s1.4-3.1,3.1-3.1s3.1,1.4,3.1,3.1S13.7,15.1,12,15.1z M18,7.1c0,0.6-0.5,1.1-1.1,1.1
	c-0.6,0-1.1-0.5-1.1-1.1S16.3,6,16.9,6C17.5,6,18,6.5,18,7.1z"/>
	</g>
</svg>
