<svg xmlns="http://www.w3.org/2000/svg" viewBox="0 0 24 24">
    <g id="icon-sun" data-name="icon sun">
        <path d="M12,8.52A3.48,3.48,0,1,1,8.52,12,3.48,3.48,0,0,1,12,8.52m0-1.94A5.42,5.42,0,1,0,17.42,12,5.42,5.42,0,0,0,12,6.58Z"/>
        <path d="M12,5.1a1,1,0,0,1-1-1V2.46a1,1,0,0,1,1.94,0V4.13A1,1,0,0,1,12,5.1Z"/>
        <path d="M12,22.51a1,1,0,0,1-1-1V19.87a1,1,0,1,1,1.94,0v1.67A1,1,0,0,1,12,22.51Z"/>
        <path d="M4.13,13H2.46a1,1,0,1,1,0-1.94H4.13a1,1,0,0,1,0,1.94Z"/>
        <path d="M21.54,13H19.87a1,1,0,0,1,0-1.94h1.67a1,1,0,1,1,0,1.94Z"/>
        <path d="M6.43,7.4a.94.94,0,0,1-.68-.28L4.57,5.94A1,1,0,0,1,5.94,4.57L7.12,5.75A1,1,0,0,1,6.43,7.4Z"/>
        <path d="M18.75,19.72a1,1,0,0,1-.69-.29l-1.18-1.18a1,1,0,1,1,1.37-1.37l1.18,1.18a1,1,0,0,1-.68,1.66Z"/>
        <path d="M5.25,19.72a1,1,0,0,1-.68-.29,1,1,0,0,1,0-1.37l1.18-1.18a1,1,0,1,1,1.37,1.37L5.94,19.43A1,1,0,0,1,5.25,19.72Z"/>
        <path d="M17.57,7.4a1,1,0,0,1-.69-1.65l1.18-1.18a1,1,0,0,1,1.37,1.37L18.25,7.12A1,1,0,0,1,17.57,7.4Z"/>
    </g>
</svg>