<svg xmlns="http://www.w3.org/2000/svg" viewBox="0 0 24 24">
	<g id="icon-behance" data-name="icon behance">
		<path d="M10.3,11.4c1-0.5,1.4-1.1,1.4-2.2c0-2.1-1.6-2.6-3.4-2.6h-5v10.6h5.1c1.9,0,3.7-0.9,3.7-3.1C12.3,12.8,11.6,11.8,10.3,11.4
	L10.3,11.4z M5.7,8.4h2.2c0.8,0,1.6,0.2,1.6,1.2c0,0.9-0.6,1.3-1.4,1.3H5.7C5.7,10.9,5.7,8.4,5.7,8.4z M8.2,15.4H5.7v-2.9h2.5
	c1,0,1.7,0.4,1.7,1.5C9.9,15.1,9.2,15.4,8.2,15.4L8.2,15.4z M18.9,8.2h-4.3v-1h4.3V8.2L18.9,8.2z M20.6,13.5c0-2.3-1.3-4.2-3.7-4.2
	c-2.3,0-3.9,1.8-3.9,4.1c0,2.4,1.5,4,3.9,4c1.8,0,3-0.8,3.6-2.6h-1.9c-0.2,0.7-1,1-1.7,1c-1.2,0-1.9-0.7-1.9-2h5.5
	C20.6,13.7,20.6,13.6,20.6,13.5z M15.1,12.5c0.1-1,0.7-1.6,1.7-1.6c1.1,0,1.6,0.6,1.7,1.6H15.1z"/>
	</g>
</svg>
