<svg xmlns="http://www.w3.org/2000/svg" viewBox="0 0 24 24">
	<g id="icon-camera" data-name="icon camera">
		<path d="M12,17.6c-2.5,0-4.5-2-4.5-4.5c0-2.5,2-4.5,4.5-4.5c2.5,0,4.5,2,4.5,4.5C16.5,15.6,14.5,17.6,12,17.6z M12,10.3
	c-1.5,0-2.8,1.2-2.8,2.8c0,1.5,1.2,2.8,2.8,2.8c1.5,0,2.8-1.2,2.8-2.8C14.8,11.5,13.5,10.3,12,10.3z"/>
		<path d="M20.6,6.1h-3.7l-1.7-2.5c-0.2-0.2-0.4-0.4-0.7-0.4H9.6C9.3,3.2,9,3.3,8.9,3.6L7.1,6.1H3.4c-1.1,0-2,0.9-2,2v10.6
	c0,1.1,0.9,2,2,2h17.2c1.1,0,2-0.9,2-2V8.2C22.6,7,21.7,6.1,20.6,6.1z M20.9,18.8c0,0.2-0.1,0.3-0.3,0.3H3.4c-0.2,0-0.3-0.1-0.3-0.3
	V8.2c0-0.2,0.1-0.3,0.3-0.3H6h1.6c0.3,0,0.6-0.2,0.8-0.4l0.9-1.3L10,4.9H14l0.8,1.2l0.9,1.3c0.2,0.3,0.5,0.4,0.8,0.4H18h2.6
	c0.2,0,0.3,0.1,0.3,0.3V18.8z"/>
	</g>
</svg>
