<svg xmlns="http://www.w3.org/2000/svg" viewBox="0 0 24 24">
	<path d="M7.3,15.5C7,14.9,7,14.8,7.6,14.6c1-0.3,0.3,0.4,1.7,1.9h0v-3.7c0-2,1.7-3.6,3.8-3.6c2.1,0,3.8,1.7,3.8,3.8
	c0,2.5-2.4,4.5-5.1,3.7c-0.4-0.2-0.1-1.2,0.3-1.1c2.1,0,3.5-0.4,3.5-2.5c0-2.4-3-3.5-4.6-1.8c-0.9,1-0.7,1.7-0.7,6.2
	c2,1.2,4.7,0.9,6.3-0.8c1-1,1.5-2.3,1.5-3.7c0-1.4-0.5-2.7-1.5-3.7c-1-1-2.3-1.5-3.7-1.5s-2.7,0.5-3.7,1.5c0,0-0.6,0.6-0.8,0.9l0,0
	c-0.1,0.2-0.2,0.4-0.8,0.2c-0.3-0.1-0.6-0.2-0.6-0.5V2.7c0-0.2,0.2-0.4,0.4-0.4h9.5c0.3,0,0.3,0.5,0.3,0.6c0,0.2,0,0.6-0.3,0.6H8.3
	v5.2h0c4.1-4.3,11.1-1.4,11.1,4.3C19.5,20,9.8,21.7,7.3,15.5L7.3,15.5z M9.8,5.2c0,0.2,0.2,1,0.6,0.8c4.9-1.9,8,1.6,8.2,1.6
	c0.2,0,0.9-0.6,0.6-0.9C15.5,3.2,9.9,4.5,9.8,5.2L9.8,5.2z M18.7,18.2c-4.3,4.3-11.8,2.4-13.1-4.1c0-0.5-1.2-0.3-1.1,0.1
	c0.9,6.8,9.7,10.1,15,4.8C19.7,18.7,19,17.9,18.7,18.2L18.7,18.2z M11.6,14c0,0.2,0.2,0.3,0.2,0.3c0.1,0.1,0.2,0.2,0.3,0.2
	c0.1,0,0.1,0,0.9-0.8c0.8,0.8,0.8,0.8,0.9,0.8c0.2,0,0.7-0.4,0.4-0.7l-0.7-0.7l0.7-0.7c0.2-0.3-0.4-0.9-0.6-0.6L13,12.5
	c-0.7-0.7-0.7-0.8-0.8-0.8c-0.2,0-0.7,0.5-0.5,0.7l0.7,0.7C11.7,13.8,11.6,13.9,11.6,14z"/>
</svg>
