<svg xmlns="http://www.w3.org/2000/svg" viewBox="0 0 24 24">
	<g id="icon-linkedin" data-name="icon linkedin">
		<path d="M11.7,21.8c-0.4,0-0.7,0-1.1,0c-0.9,0-1.4-0.6-1.4-1.4v-2.9c0-2.3,0-4.6,0-6.9c0-0.4,0.1-0.8,0.4-1c0.3-0.3,0.6-0.4,1-0.4
	c0.5,0,1,0,1.5,0l0.7,0c0.5,0,0.9,0.2,1.1,0.5c0.5-0.3,1-0.5,1.6-0.6c0.8-0.1,1.5-0.1,2.2,0c1.2,0.2,2.2,0.8,2.8,1.8
	c0.4,0.7,0.7,1.4,0.8,2.2c0.1,0.8,0.1,1.4,0.1,2c0,1.2,0,2.4,0,3.6l0,1.6c0,0.6-0.2,1.1-0.7,1.3c-0.2,0.1-0.4,0.2-0.7,0.2
	c-0.8,0-1.6,0-2.3,0c-0.8,0-1.4-0.6-1.4-1.4V19c0-1.2,0-2.5,0-3.7c0-0.4-0.1-0.8-0.2-1.1c-0.1-0.4-0.4-0.6-0.8-0.6
	c-0.5,0-0.7,0.2-0.9,0.4c-0.1,0.2-0.2,0.4-0.3,0.7c0,0.2-0.1,0.5-0.1,0.7c0,1.3,0,2.5,0,3.7l0,1.3c0,0.9-0.6,1.4-1.4,1.4
	C12.4,21.8,12,21.8,11.7,21.8z M10.6,20.2c0.7,0,1.4,0,2,0l0-1.2c0-1.3,0-2.5,0-3.8c0-0.4,0.1-0.7,0.1-1c0.1-0.5,0.3-0.9,0.5-1.3
	c0.3-0.5,1-1.1,2.2-1c1,0.1,1.8,0.7,2.1,1.7c0.2,0.5,0.2,1,0.2,1.5c0,1.2,0,2.5,0,3.7v1.3c0.7,0,1.4,0,2.1,0l0-1.6
	c0-1.2,0-2.4,0-3.6c0-0.5,0-1.1-0.1-1.8c-0.1-0.6-0.3-1.1-0.6-1.6c-0.4-0.6-1-1-1.8-1.1c-0.5-0.1-1.1-0.1-1.7,0
	c-0.5,0.1-0.9,0.3-1.2,0.5c-0.1,0.1-0.3,0.3-0.4,0.4L14,11.7c-0.2,0.2-0.5,0.3-0.8,0.2c-0.3-0.1-0.5-0.4-0.5-0.7v-0.5l-0.6,0
	c-0.5,0-1,0-1.5,0c0,2.3,0,4.5,0,6.8V20.2z"/>
		<path d="M5.5,21.8c-0.4,0-0.8,0-1.2,0c-0.8,0-1.3-0.6-1.3-1.4l0-9.7c0-0.9,0.5-1.4,1.4-1.4h2.2c0.8,0,1.3,0.5,1.4,1.2
	c0,0.1,0,0.2,0,0.3v9.5c0,0.1,0,0.2,0,0.3c-0.1,0.8-0.6,1.2-1.3,1.3C6.3,21.7,5.9,21.8,5.5,21.8z M4.5,20.2c0.7,0,1.4,0,2,0
	c0,0,0,0,0,0v-9.5c0,0,0,0,0,0l-2,0l0,4.8L4.5,20.2z"/>
		<path d="M5.5,8.3C5.5,8.3,5.5,8.3,5.5,8.3c-1.7,0-3-1.4-3-3l0,0c0-0.8,0.3-1.6,0.9-2.1C4,2.6,4.7,2.2,5.5,2.2c0,0,0,0,0,0
	c1.7,0,3,1.4,3,3c0,0.8-0.3,1.6-0.9,2.1C7.1,8,6.3,8.3,5.5,8.3z M4,5.3c0,0.8,0.7,1.5,1.5,1.5c0.4,0,0.8-0.2,1.1-0.4
	C6.9,6.1,7,5.7,7,5.3c0-0.8-0.7-1.5-1.5-1.5c0,0,0,0,0,0c-0.4,0-0.8,0.2-1.1,0.4C4.1,4.5,4,4.9,4,5.3L4,5.3z"/>
	</g>
</svg>
