<svg xmlns="http://www.w3.org/2000/svg" viewBox="0 0 24 24">
	<g id="icon-dribbble" data-name="icon dribbble">
		<path d="M12,1C5.9,1,1,5.9,1,12s4.9,11,11,11s11-4.9,11-11S18.1,1,12,1z M19.2,6.3c1.3,1.6,1.9,3.5,2,5.4c-0.5-0.1-2.2-0.4-4.1-0.4
	c-0.7,0-1.4,0-2.2,0.1c-0.1-0.3-0.2-0.5-0.4-0.8c-0.1-0.3-0.2-0.5-0.3-0.8C17.3,8.6,18.8,6.8,19.2,6.3z M18,5.1
	C18,5.1,18,5.1,18,5.1c-1.2,1.4-2.8,2.5-4.7,3.2C12,5.8,10.6,3.7,10,3.1C13,2.5,15.9,3.2,18,5.1z M8,3.8c0.4,0.5,1.9,2.6,3.3,5.2
	C7.9,9.9,4.7,10,3.1,10C3.7,7.2,5.5,4.9,8,3.8z M2.8,12v-0.2c0,0,0.1,0,0.2,0c1.6,0,5.4-0.1,9.3-1.3c0.2,0.3,0.3,0.6,0.5,0.9
	c0.1,0.1,0.1,0.3,0.2,0.5c-3.3,0.9-6.3,3.7-7.7,6.1C3.7,16.4,2.8,14.3,2.8,12z M6.5,19.3c0.9-1.8,3.3-4.3,7.2-5.6
	c1.1,2.9,1.6,5.4,1.9,6.5c0,0.1,0,0.2,0.1,0.3C12.3,21.7,9,21.3,6.5,19.3z M17.3,19.5c-0.1-0.8-0.6-3.3-1.7-6.3
	c2.6-0.4,5,0.2,5.5,0.4C20.7,16,19.3,18.1,17.3,19.5z"/>
	</g>
</svg>
