<svg xmlns="http://www.w3.org/2000/svg" viewBox="0 0 24 24">
	<g id="icon-pinterest" data-name="icon pinterest">
		<path d="M12,3.1c-4.9,0-8.9,4-8.9,8.9c0,3.8,2.3,7,5.6,8.3c-0.1-0.7-0.1-1.8,0-2.5c0.2-0.7,1-4.4,1-4.4S9.6,12.8,9.6,12
	c0-1.2,0.7-2.2,1.6-2.2c0.8,0,1.1,0.6,1.1,1.3c0,0.8-0.5,1.9-0.7,3c-0.2,0.9,0.4,1.6,1.3,1.6c1.6,0,2.8-1.7,2.8-4.1
	C15.7,9.5,14.2,8,12,8c-2.5,0-4,1.9-4,3.9c0,0.8,0.3,1.6,0.7,2c0.1,0.1,0.1,0.2,0.1,0.3c-0.1,0.3-0.2,0.9-0.2,1
	c0,0.2-0.1,0.2-0.3,0.1c-1.1-0.5-1.8-2.1-1.8-3.4c0-2.8,2-5.4,5.9-5.4c3.1,0,5.5,2.2,5.5,5.1c0,3.1-1.9,5.5-4.6,5.5
	c-0.9,0-1.7-0.5-2-1l-0.6,2.1c-0.2,0.8-0.7,1.7-1.1,2.3c0.8,0.3,1.7,0.4,2.6,0.4c4.9,0,8.9-4,8.9-8.9C20.9,7.1,16.9,3.1,12,3.1
	L12,3.1z"/>
	</g>
</svg>
